<svg width="270" height="23" viewBox="0 0 270 23" fill="none" xmlns="http://www.w3.org/2000/svg">
<path d="M37.5087 17.4488V13.6686H55.9105V8.42207H37.5087V5.24653H55.9105V0H31.6323V22.6953H55.9105V17.4488H37.5087Z" fill="#121111"/>
<path d="M76.9921 11.1072L87.6295 0H79.6526L72.9747 6.9319L66.3209 0H58.3151L68.9525 11.1358L57.8516 22.6953H65.8622L72.9409 15.3111L80.0196 22.6953H88.093L76.9921 11.1072Z" fill="#121111"/>
<path d="M89.2183 0V5.24653H99.45V22.6953H105.322V5.24653H115.553V0H89.2183Z" fill="#121111"/>
<path d="M151.888 17.4488V13.6686H170.295V8.42207H151.888V5.24653H170.295V0H146.017V22.6953H170.295V17.4488H151.888Z" fill="#121111"/>
<path d="M197.9 0L190.136 15.93L182.348 0H174.207V22.6953H180.078V8.48396L187.055 22.6953H193.135L200.17 8.26019V22.6953H206.041V0H197.9Z" fill="#121111"/>
<path d="M228.421 0V12.0737C228.421 15.8919 226.456 17.7487 222.419 17.7487H221.806C217.765 17.7487 215.804 15.8919 215.804 12.0737V0H209.928V12.3784C209.928 19.1294 214.37 23 222.115 23C229.744 23 234.302 19.0294 234.302 12.3784V0H228.421Z" fill="#121111"/>
<path d="M261.854 0L254.095 15.93L246.306 0H238.165V22.6953H244.037V8.48396L251.009 22.6953H257.093L264.124 8.26019V22.6953H270V0H261.854Z" fill="#121111"/>
<path d="M142.791 7.50321C142.791 3.01842 139.179 0 133.8 0H118.633V22.6953H124.51V14.9731H128.633L135.335 22.7001H142.487L135.529 14.8731C139.99 14.3304 142.791 11.5595 142.791 7.50321ZM124.51 5.24653H133.307C135.659 5.24653 136.852 6.00352 136.852 7.49845C136.852 8.04595 136.852 9.7218 133.307 9.7218H124.51V5.24653Z" fill="#121111"/>
<g clip-path="url(#clip0)">
<path d="M0 0V23H22.9752V0H0ZM22.0936 10.9623H12.0248V0.882575C17.4639 1.15265 21.8238 5.5173 22.0936 10.9623ZM10.9505 0.882575V10.9671H0.881625C1.15141 5.5173 5.51136 1.15265 10.9505 0.882575ZM0.881625 12.0377H10.9553V22.1222C5.51136 21.8473 1.15141 17.4827 0.881625 12.0377ZM12.0248 22.1174V12.0377H22.0984C21.8238 17.4827 17.4639 21.8473 12.0248 22.1174Z" fill="#121111"/>
</g>
<defs>
<clipPath id="clip0">
<rect width="22.9752" height="23" fill="white"/>
</clipPath>
</defs>
</svg>
