<svg xmlns="http://www.w3.org/2000/svg" viewBox="0 0 210.75 18"><defs><style>.a{fill:#fff;}</style></defs><title>logo</title><path class="a" d="M28.6,13.66v-3H43V6.59H28.6V4.11H43V0H24V17.76H43v-4.1Z"/><path class="a" d="M59.54,8.69,67.87,0H61.62L56.39,5.42,51.18,0H44.9l8.34,8.71-8.7,9.05h6.28L56.36,12l5.55,5.78h6.32Z"/><path class="a" d="M69.12,0V4.11h8V17.76h4.6V4.11h8V0Z"/><path class="a" d="M118.21,13.66v-3h14.42V6.59H118.21V4.11h14.42V0h-19V17.76h19v-4.1Z"/><path class="a" d="M154.26,0l-6.08,12.47L142.08,0H135.7V17.76h4.6V6.64l5.47,11.12h4.76L156,6.46v11.3h4.6V0Z"/><path class="a" d="M178.17,0V9.45c0,3-1.54,4.44-4.7,4.44H173c-3.17,0-4.7-1.45-4.7-4.44V0h-4.6V9.69c0,5.28,3.48,8.31,9.54,8.31s9.55-3.11,9.55-8.31V0Z"/><path class="a" d="M204.37,0l-6.08,12.47L192.19,0h-6.38V17.76h4.6V6.64l5.46,11.12h4.77l5.51-11.3v11.3h4.6V0Z"/><path class="a" d="M111.09,5.87c0-3.51-2.83-5.87-7-5.87H92.16V17.76h4.6v-6H100l5.25,6h5.6l-5.45-6.13C108.89,11.22,111.09,9.05,111.09,5.87ZM96.76,4.11h6.9c1.84,0,2.77.59,2.77,1.76,0,.43,0,1.74-2.77,1.74h-6.9Z"/><path class="a" d="M0,0V18H18V0ZM17.31,8.58H9.42V.69A8.32,8.32,0,0,1,17.31,8.58ZM8.58.69V8.58H.69A8.32,8.32,0,0,1,8.58.69ZM.69,9.42H8.58v7.89A8.32,8.32,0,0,1,.69,9.42Zm8.73,7.89V9.42h7.89A8.32,8.32,0,0,1,9.42,17.31Z"/></svg>