<svg width="1708" height="237" viewBox="0 0 1708 237" fill="none" xmlns="http://www.w3.org/2000/svg">
<path d="M106.308 173.623L106.858 170.667H103.85H69.1471H67.077L66.6909 172.7L55.6029 231.117H21.9671L32.4091 173.613L32.9442 170.667H29.9493H3.02488L9.30503 137.912H36.9505H39.0353L39.4098 135.862L47.1456 93.5026L47.6842 90.5534H44.6863H17.9792L24.0344 57.7992H51.6658H53.7469L54.1244 55.7527L62.9737 7.78027H97.5841L88.9021 54.8457L88.3573 57.7992H91.3606H125.804H127.885L128.263 55.7527L137.112 7.78027H171.967L163.043 54.8334L162.481 57.7992H165.499H192.186L185.906 90.5534H158.52H156.447L156.063 92.5897L148.068 134.949L147.509 137.912H150.525H176.952L170.672 170.667H143.307H141.229L140.849 172.71L129.993 231.117H95.6214L106.308 173.623ZM121.047 93.5244L121.585 90.5752H118.587H84.1434H82.0711L81.6867 92.6116L73.6916 134.971L73.1322 137.934H76.1482H110.851H112.936L113.311 135.883L121.047 93.5244Z" stroke="white" stroke-opacity="0.2" stroke-width="5"/>
<path d="M473.105 117.626V7.78027H527.529V116.688C527.529 129.693 529.145 145.234 536.725 157.581C544.443 170.152 558.099 179.027 581.198 179.027H582.451C605.552 179.027 619.038 170.147 626.571 157.556C633.959 145.207 635.385 129.665 635.385 116.688V7.78027H689.787V117.605C689.787 140.181 686.853 169.456 672.399 193.026C658.078 216.378 632.219 234.5 585.433 234.5H578.194C529.505 234.5 503.492 216.283 489.471 192.941C475.304 169.358 473.105 140.11 473.105 117.626Z" stroke="white" stroke-opacity="0.2" stroke-width="5"/>
<path d="M780.858 156.547H778.358V159.047V231.117H723.697V7.78027H862.257C887.689 7.78027 906.529 15.6602 919.012 28.4003C931.509 41.1549 937.894 59.0448 937.894 79.5448V82.6219C937.894 101.369 933.021 116.182 923.992 127.064C914.964 137.944 901.567 145.153 884.03 148.293L879.915 149.03L882.511 152.307L944.947 231.117H879.934L821.758 157.497L821.007 156.547H819.797H780.858ZM778.358 104.118V106.618H780.858H854.5C862.364 106.618 868.931 104.682 873.544 100.426C878.192 96.1379 880.467 89.8576 880.467 82.0108V81.3998C880.467 73.7545 878.408 67.6025 873.819 63.4081C869.275 59.2538 862.686 57.4257 854.5 57.4257H780.858H778.358V59.9257V104.118Z" stroke="white" stroke-opacity="0.2" stroke-width="5"/>
<path d="M1050.06 162.991L1087.29 7.78027H1149.25L1186.24 163.292L1191.1 163.306L1229.08 7.78027H1282.51L1221.96 231.117H1155.42L1118.21 82.0165L1113.36 82.0201L1076.38 231.117H1010.83L948.566 7.78027H1007.23L1045.2 163.002L1050.06 162.991Z" stroke="white" stroke-opacity="0.2" stroke-width="5"/>
<path d="M1433.69 193.171L1433.09 191.53H1431.34H1333.24H1331.48L1330.89 193.183L1317.24 231.117H1262.93L1345.46 7.78027H1420.63L1505.85 231.117H1447.57L1433.69 193.171ZM1384.27 57.5177L1381.9 51.0202L1379.57 57.5356L1349.1 142.865L1347.91 146.205H1351.46H1413.13H1416.7L1415.48 142.847L1384.27 57.5177Z" stroke="white" stroke-opacity="0.2" stroke-width="5"/>
<path d="M1558.96 151.06V150.319L1558.56 149.699L1466.44 7.78027H1533.59L1586.3 92.2383L1588.41 95.6295L1590.54 92.2425L1643.48 7.78027H1702.98L1613.76 150.037L1613.38 150.646V151.365V231.117H1558.96V151.06Z" stroke="white" stroke-opacity="0.2" stroke-width="5"/>
<path d="M214.199 118.413C214.199 54.4781 267.574 2.5 333.549 2.5C399.546 2.5 452.899 54.4778 452.899 118.413C452.899 182.348 399.525 234.326 333.549 234.326C267.574 234.326 214.199 182.348 214.199 118.413ZM267.693 118.435C267.693 153.905 297.252 182.52 333.549 182.52C369.869 182.52 399.405 153.904 399.405 118.435C399.405 82.9649 369.846 54.3496 333.549 54.3496C297.252 54.3496 267.693 82.9649 267.693 118.435Z" stroke="white" stroke-opacity="0.2" stroke-width="5"/>
</svg>
