<svg width="310" height="58" viewBox="0 0 310 58" fill="none" xmlns="http://www.w3.org/2000/svg">
<path d="M310 0H0V58H310V0Z" fill="#FF4B00"/>
<path d="M28.317 37.7093H22.3863L20.4254 47.981H13.8116L15.6876 37.7093H10.5693L11.8064 31.2941H16.884L18.2061 24.0965H13.1285L14.3212 17.6813H19.3988L20.9757 9.18213H27.7593L26.1825 17.6813H32.0689L33.6457 9.18213H40.4737L38.8525 17.6813H43.9301L42.6931 24.0965H37.6598L36.2934 31.2941H41.3267L40.0896 37.7093H35.06L33.1398 47.981H26.3967L28.317 37.7093ZM30.8355 24.1002H24.9491L23.5828 31.2978H29.5134L30.8355 24.1002Z" fill="#E8E8EA"/>
<path d="M90.9941 28.272V9.18213H101.149V28.1125C101.149 32.4919 102.257 38.2804 109.894 38.2804H110.108C117.745 38.2804 118.727 32.4919 118.727 28.1125V9.18213H128.879V28.2682C128.879 35.985 126.873 48.5558 110.618 48.5558H109.381C92.486 48.5558 90.9941 35.9368 90.9941 28.272Z" fill="#E8E8EA"/>
<path d="M144.015 35.3101V47.981H133.819V9.18213H157.926C166.8 9.18213 171.279 14.6591 171.279 21.8011V22.324C171.279 28.843 167.867 32.8071 161.722 33.901L172.941 47.981H160.74L150.67 35.3101H144.015ZM144.015 25.9766H156.6C159.159 25.9766 160.611 24.7232 160.611 22.2202V22.1163C160.611 19.6652 159.289 18.4675 156.6 18.4675H144.015V25.9766Z" fill="#E8E8EA"/>
<path d="M182.992 47.981L172.113 9.18213H183.037L189.606 35.8812L196.046 9.18213H207.309L213.709 35.9331L220.279 9.18213H230.304L219.725 47.981H207.693L201.253 22.324L194.854 47.981H182.992Z" fill="#E8E8EA"/>
<path d="M255.181 41.2544H238.416L235.982 47.981H225.786L240.207 9.18213H253.645L268.534 47.981H257.655L255.181 41.2544ZM246.735 18.2042L241.529 32.7033H252.068L246.735 18.2042Z" fill="#E8E8EA"/>
<path d="M276.562 33.9529L260.392 9.18213H272.892L282.024 23.7331L291.197 9.18213H302.375L286.718 34.0048V47.981H276.562V33.9529Z" fill="#E8E8EA"/>
<path d="M67.5718 8.28418C56.0724 8.28418 46.748 17.2951 46.748 28.4049C46.748 39.5147 56.0724 48.5256 67.5718 48.5256C79.0712 48.5256 88.3955 39.5147 88.3955 28.4049C88.3955 17.2951 79.0749 8.28418 67.5718 8.28418ZM67.5718 38.8731C61.5931 38.8731 56.7445 34.1897 56.7445 28.4086C56.7445 22.6275 61.5931 17.944 67.5718 17.944C73.5504 17.944 78.3991 22.6275 78.3991 28.4086C78.3991 34.1897 73.5541 38.8731 67.5718 38.8731Z" fill="#E8E8EA"/>
</svg>
