<svg width="351" height="50" viewBox="0 0 351 50" fill="none" xmlns="http://www.w3.org/2000/svg">
<path d="M21.9759 36.5099H14.8591L12.506 48.9068H4.56945L6.82059 36.5099H0.678711L2.16322 28.7675H8.25635L9.84278 20.0807H3.74965L5.18098 12.3382H11.2741L13.1663 2.08057H21.3067L19.4145 12.3382H26.4781L28.3703 2.08057H36.5639L34.6186 12.3382H40.7117L39.2272 20.0807H33.1872L31.5476 28.7675H37.5876L36.1031 36.5099H30.0675L27.7632 48.9068H19.6716L21.9759 36.5099ZM24.9981 20.0852H17.9345L16.2949 28.7719H23.4116L24.9981 20.0852Z" fill="white"/>
<path d="M97.1885 25.12V2.08057H109.375V24.9276C109.375 30.213 110.704 37.1992 119.868 37.1992H120.125C129.289 37.1992 130.468 30.213 130.468 24.9276V2.08057H142.65V25.1155C142.65 34.4289 140.244 49.6005 120.737 49.6005H119.252C98.9788 49.6005 97.1885 34.3707 97.1885 25.12Z" fill="white"/>
<path d="M160.814 33.6144V48.9068H148.579V2.08057H177.507C188.156 2.08057 193.531 8.69076 193.531 17.3104V17.9414C193.531 25.8092 189.436 30.5934 182.063 31.9137L195.525 48.9068H180.884L168.799 33.6144H160.814ZM160.814 22.3497H175.916C178.987 22.3497 180.729 20.837 180.729 17.8161V17.6908C180.729 14.7326 179.142 13.287 175.916 13.287H160.814V22.3497Z" fill="white"/>
<path d="M207.586 48.9068L194.531 2.08057H207.639L215.523 34.3036L223.251 2.08057H236.767L244.446 34.3662L252.33 2.08057H264.361L251.665 48.9068H237.227L229.499 17.9414L221.82 48.9068H207.586Z" fill="white"/>
<path d="M294.212 40.7884H274.094L271.174 48.9068H258.938L276.243 2.08057H292.369L310.236 48.9068H297.181L294.212 40.7884ZM284.078 12.9693L277.829 30.4681H290.477L284.078 12.9693Z" fill="white"/>
<path d="M319.871 31.9763L300.466 2.08057H315.466L326.425 19.6421L337.432 2.08057H350.846L332.057 32.039V48.9068H319.871V31.9763Z" fill="white"/>
<path d="M69.0812 0.997559C55.282 0.997559 44.0928 11.8728 44.0928 25.2812C44.0928 38.6895 55.282 49.5648 69.0812 49.5648C82.8805 49.5648 94.0697 38.6895 94.0697 25.2812C94.0697 11.8728 82.885 0.997559 69.0812 0.997559ZM69.0812 37.9153C61.9069 37.9153 56.0885 32.2628 56.0885 25.2856C56.0885 18.3085 61.9069 12.656 69.0812 12.656C76.2556 12.656 82.074 18.3085 82.074 25.2856C82.074 32.2628 76.2601 37.9153 69.0812 37.9153Z" fill="white"/>
</svg>
