<svg xmlns="http://www.w3.org/2000/svg" viewBox="0 0 20 20"><defs><style>.a{fill:#fff;}</style></defs><title>inst</title><path class="a" d="M13.75,0H6.25A6.25,6.25,0,0,0,0,6.25v7.5A6.25,6.25,0,0,0,6.25,20h7.5A6.25,6.25,0,0,0,20,13.75V6.25A6.25,6.25,0,0,0,13.75,0Zm4.37,13.75a4.37,4.37,0,0,1-4.37,4.37H6.25a4.37,4.37,0,0,1-4.37-4.37V6.25A4.37,4.37,0,0,1,6.25,1.88h7.5a4.37,4.37,0,0,1,4.37,4.37Z"/><path class="a" d="M10,5a5,5,0,1,0,5,5A5,5,0,0,0,10,5Zm0,8.12A3.12,3.12,0,1,1,13.12,10,3.12,3.12,0,0,1,10,13.12Z"/><path class="a" d="M15.38,5.29a.67.67,0,1,0-.67-.67A.67.67,0,0,0,15.38,5.29Z"/></svg>