<svg width="28" height="28" viewBox="0 0 28 28" fill="none" xmlns="http://www.w3.org/2000/svg">
<path d="M23.8995 4.10047C21.2552 1.45627 17.7395 0 14 0C10.2605 0 6.74477 1.45627 4.10047 4.10047C1.45627 6.74477 0 10.2605 0 14C0 17.7395 1.45627 21.2552 4.10047 23.8995C6.74477 26.5437 10.2605 28 14 28C17.7395 28 21.2552 26.5437 23.8995 23.8995C26.5437 21.2552 28 17.7395 28 14C28 10.2605 26.5437 6.74477 23.8995 4.10047ZM22.7394 22.7394C20.405 25.0738 17.3013 26.3594 14 26.3594C10.6987 26.3594 7.595 25.0738 5.26061 22.7394C2.92622 20.405 1.64062 17.3013 1.64062 14C1.64062 10.6987 2.92622 7.595 5.26061 5.26061C7.595 2.92622 10.6987 1.64062 14 1.64062C17.3013 1.64062 20.405 2.92622 22.7394 5.26061C25.0738 7.595 26.3594 10.6987 26.3594 14C26.3594 17.3013 25.0738 20.405 22.7394 22.7394Z" fill="white"/>
<path d="M9.57861 6.84668V21.1531L21.9684 13.9999L9.57861 6.84668ZM11.2193 9.68841L18.6871 13.9999L11.2193 18.3115V9.68841Z" fill="white"/>
</svg>
