<svg xmlns="http://www.w3.org/2000/svg" viewBox="0 0 22 17.8"><defs><style>.a{fill:#fff;}</style></defs><title>rddt</title><path class="a" d="M22,8.21a2.74,2.74,0,0,0-2.74-2.73A2.66,2.66,0,0,0,17.62,6,11.53,11.53,0,0,0,12,4.18l1.15-2.7,3.34.78a2.05,2.05,0,1,0,2-2.26,2,2,0,0,0-1.71.93L12.86,0a.68.68,0,0,0-.79.4L10.49,4.14A11.85,11.85,0,0,0,4.34,6a2.7,2.7,0,0,0-1.6-.51,2.73,2.73,0,0,0-1.36,5.1c0,.12,0,.25,0,.37,0,3.78,4.3,6.85,9.58,6.85s9.59-3.07,9.59-6.85c0-.1,0-.21,0-.32A2.7,2.7,0,0,0,22,8.21ZM18.48,1.37a.69.69,0,1,1-.68.68A.69.69,0,0,1,18.48,1.37ZM6.16,10.27a1.37,1.37,0,1,1,1.37,1.37A1.37,1.37,0,0,1,6.16,10.27Zm8,4.54a5.4,5.4,0,0,1-6.32,0,.68.68,0,0,1,.8-1.11,4,4,0,0,0,4.72,0,.7.7,0,0,1,1,.15A.69.69,0,0,1,14.11,14.81Zm.26-3.17a1.37,1.37,0,1,1,1.37-1.37A1.37,1.37,0,0,1,14.37,11.64Z"/></svg>