<svg xmlns="http://www.w3.org/2000/svg" viewBox="0 0 20 16.25"><defs><style>.a{fill:#fff;}</style></defs><title>twt</title><path class="a" d="M20,1.92a8.27,8.27,0,0,1-2.36.65A4,4,0,0,0,19.44.3a8.12,8.12,0,0,1-2.6,1A4.1,4.1,0,0,0,9.75,4.1,4.76,4.76,0,0,0,9.84,5,11.62,11.62,0,0,1,1.39.75,4.1,4.1,0,0,0,2.65,6.23,4,4,0,0,1,.8,5.72v0a4.13,4.13,0,0,0,3.29,4A4.21,4.21,0,0,1,3,9.93a3.38,3.38,0,0,1-.78-.07,4.16,4.16,0,0,0,3.84,2.86A8.27,8.27,0,0,1,1,14.47a7.82,7.82,0,0,1-1-.06,11.57,11.57,0,0,0,6.29,1.84A11.59,11.59,0,0,0,18,4.58c0-.18,0-.35,0-.53A8.18,8.18,0,0,0,20,1.92Z"/></svg>