<svg xmlns="http://www.w3.org/2000/svg" xmlns:xlink="http://www.w3.org/1999/xlink" viewBox="0 0 20 11.32"><defs><style>.a{fill:none;}.b{clip-path:url(#a);}.c{fill:#fff;fill-rule:evenodd;}</style><clipPath id="a" transform="translate(0 -4.34)"><rect class="a" width="20" height="20"/></clipPath></defs><title>vk</title><g class="b"><path class="c" d="M17.21,11.54a24.29,24.29,0,0,1,2,2,5.51,5.51,0,0,1,.7,1c.27.52,0,1.1-.44,1.13H16.52a2.26,2.26,0,0,1-1.86-.76c-.4-.41-.78-.85-1.16-1.27a3,3,0,0,0-.53-.47.61.61,0,0,0-1,.24,3,3,0,0,0-.3,1.36c0,.69-.24.87-.93.9a7.47,7.47,0,0,1-4.17-.9,9.16,9.16,0,0,1-2.81-2.63A35.35,35.35,0,0,1,.1,5.54C-.13,5,0,4.75.61,4.74c1,0,1.9,0,2.85,0a.83.83,0,0,1,.79.6A18.23,18.23,0,0,0,6.19,8.91a2.93,2.93,0,0,0,.73.8c.34.23.59.16.75-.22a2.47,2.47,0,0,0,.17-.75,10.52,10.52,0,0,0,0-2.63,1.1,1.1,0,0,0-.93-1c-.28,0-.24-.16-.1-.31a1,1,0,0,1,.89-.45h3.29c.52.1.64.34.71.86V8.86c0,.2.1.8.46.93s.49-.14.66-.32a11.66,11.66,0,0,0,1.86-2.85c.22-.45.41-.92.6-1.39A.71.71,0,0,1,16,4.72h3.45c.53.09.68.32.52.85a8,8,0,0,1-1.26,2.18c-.53.73-1.1,1.44-1.62,2.17S16.61,11,17.21,11.54Z" transform="translate(0 -4.34)"/></g></svg>